<svg xmlns="http://www.w3.org/2000/svg" width="1280" height="820" viewBox="0 0 1280 820" font-family="Inter, Segoe UI, Roboto, Helvetica, Arial, sans-serif">
  <defs>
    <filter id="card" x="-20%" y="-20%" width="140%" height="140%">
      <feDropShadow dx="0" dy="2" stdDeviation="6" flood-color="#1f2a44" flood-opacity="0.08"/>
    </filter>
    <linearGradient id="logo" x1="0" y1="0" x2="1" y2="1">
      <stop offset="0" stop-color="#6366f1"/>
      <stop offset="1" stop-color="#14b8a6"/>
    </linearGradient>
  </defs>
  <rect width="1280" height="820" fill="#f5f6fa"/>

  <!-- Sidebar -->
  <rect x="0" y="0" width="232" height="820" fill="#ffffff"/>
  <line x1="232" y1="0" x2="232" y2="820" stroke="#e9ebf1"/>
  <rect x="24" y="28" width="30" height="30" rx="9" fill="url(#logo)"/>
  <text x="64" y="49" fill="#111827" font-size="16" font-weight="700">Agentic Workflows</text>
  <rect x="16" y="96" width="200" height="42" rx="10" fill="#eef2ff"/>
  <rect x="16" y="96" width="3" height="42" rx="2" fill="#4f46e5"/>
  <circle cx="40" cy="117" r="4" fill="#4f46e5"/><text x="60" y="122" fill="#4f46e5" font-size="14" font-weight="600">Groups</text>
  <circle cx="40" cy="161" r="4" fill="#9ca3af"/><text x="60" y="166" fill="#6b7280" font-size="14">Flows</text>
  <circle cx="40" cy="201" r="4" fill="#9ca3af"/><text x="60" y="206" fill="#6b7280" font-size="14">Runs</text>
  <circle cx="40" cy="241" r="4" fill="#9ca3af"/><text x="60" y="246" fill="#6b7280" font-size="14">Audit</text>
  <circle cx="40" cy="281" r="4" fill="#9ca3af"/><text x="60" y="286" fill="#6b7280" font-size="14">Settings</text>

  <!-- Topbar -->
  <rect x="232" y="0" width="1048" height="64" fill="#ffffff"/>
  <line x1="232" y1="64" x2="1280" y2="64" stroke="#e9ebf1"/>
  <text x="264" y="40" fill="#9ca3af" font-size="14">Groups</text>
  <text x="318" y="40" fill="#9ca3af" font-size="14">/</text>
  <text x="332" y="40" fill="#111827" font-size="14" font-weight="700">Support</text>
  <circle cx="1232" cy="32" r="14" fill="#e0e7ff"/><text x="1232" y="37" fill="#4f46e5" font-size="12" font-weight="700" text-anchor="middle">CM</text>

  <!-- Group header banner -->
  <g filter="url(#card)"><rect x="264" y="88" width="984" height="96" rx="16" fill="#ffffff"/></g>
  <rect x="288" y="112" width="48" height="48" rx="14" fill="#eefaf6"/>
  <text x="312" y="143" fill="#0d9488" font-size="22" font-weight="700" text-anchor="middle">S</text>
  <text x="352" y="126" fill="#111827" font-size="20" font-weight="700">Support</text>
  <text x="352" y="148" fill="#6b7280" font-size="13">Bug triage, reproduce, and PR proposal · 2 agents · 1 flow</text>
  <rect x="352" y="158" width="232" height="20" rx="10" fill="#f3f0ff"/>
  <circle cx="365" cy="168" r="3.5" fill="#7c3aed"/>
  <text x="376" y="172" fill="#6d28d9" font-size="11" font-weight="600">common pi agent · flow-author (locked)</text>
  <rect x="980" y="120" width="118" height="34" rx="10" fill="#ffffff" stroke="#d8dbe6"/>
  <text x="1039" y="142" fill="#374151" font-size="13" font-weight="600" text-anchor="middle">+ Agent</text>
  <rect x="1110" y="120" width="138" height="34" rx="10" fill="#4f46e5"/>
  <text x="1179" y="142" fill="#ffffff" font-size="13" font-weight="600" text-anchor="middle">+ Flow from prompt</text>

  <!-- LEFT: Agents -->
  <text x="264" y="224" fill="#111827" font-size="15" font-weight="700">Agents</text>
  <text x="724" y="224" fill="#9ca3af" font-size="12" text-anchor="end">isolated .pi workspaces</text>

  <!-- Agent card 1 -->
  <g filter="url(#card)"><rect x="264" y="240" width="460" height="92" rx="14" fill="#ffffff"/></g>
  <circle cx="306" cy="286" r="18" fill="#fbcfe8"/><text x="306" y="291" font-size="13" font-weight="700" fill="#9d174d" text-anchor="middle">tr</text>
  <text x="338" y="270" fill="#111827" font-size="15" font-weight="700">triage</text>
  <rect x="338" y="282" width="118" height="20" rx="6" fill="#f1f2f7"/><text x="348" y="296" fill="#6b7280" font-size="11">claude-opus-4-7</text>
  <rect x="464" y="282" width="74" height="20" rx="6" fill="#f1f2f7"/><text x="474" y="296" fill="#6b7280" font-size="11">read · bash</text>
  <text x="338" y="320" fill="#9ca3af" font-size="11">skills: triage-rubric.zip</text>
  <rect x="636" y="276" width="66" height="20" rx="10" fill="#ecfdf5"/><circle cx="650" cy="286" r="3" fill="#10b981"/><text x="660" y="290" fill="#047857" font-size="11" font-weight="600">ready</text>

  <!-- Agent card 2 -->
  <g filter="url(#card)"><rect x="264" y="348" width="460" height="92" rx="14" fill="#ffffff"/></g>
  <circle cx="306" cy="394" r="18" fill="#bbf7d0"/><text x="306" y="399" font-size="13" font-weight="700" fill="#166534" text-anchor="middle">dv</text>
  <text x="338" y="378" fill="#111827" font-size="15" font-weight="700">dev</text>
  <rect x="338" y="390" width="118" height="20" rx="6" fill="#f1f2f7"/><text x="348" y="404" fill="#6b7280" font-size="11">claude-opus-4-7</text>
  <rect x="464" y="390" width="120" height="20" rx="6" fill="#f1f2f7"/><text x="474" y="404" fill="#6b7280" font-size="11">read · write · edit · bash</text>
  <text x="338" y="428" fill="#9ca3af" font-size="11">extensions: gh-cli.zip · skills: repo-conventions.zip</text>
  <rect x="636" y="384" width="66" height="20" rx="10" fill="#ecfdf5"/><circle cx="650" cy="394" r="3" fill="#10b981"/><text x="660" y="398" fill="#047857" font-size="11" font-weight="600">ready</text>

  <!-- Resources card -->
  <text x="264" y="478" fill="#111827" font-size="15" font-weight="700">Resources</text>
  <text x="724" y="478" fill="#9ca3af" font-size="12" text-anchor="end">drag a .zip to upload</text>
  <g filter="url(#card)"><rect x="264" y="494" width="460" height="232" rx="14" fill="#ffffff"/></g>

  <!-- resource rows -->
  <rect x="288" y="514" width="28" height="28" rx="8" fill="#eff6ff"/><text x="302" y="533" font-size="12" text-anchor="middle" fill="#2563eb">zip</text>
  <text x="328" y="525" fill="#111827" font-size="13" font-weight="600">triage-rubric.zip</text>
  <text x="328" y="540" fill="#9ca3af" font-size="11">skill · 14 KB · assoc: triage</text>
  <rect x="630" y="514" width="72" height="26" rx="8" fill="#eef2ff"/><text x="666" y="531" fill="#4f46e5" font-size="11" font-weight="600" text-anchor="middle">associate</text>

  <line x1="288" y1="558" x2="700" y2="558" stroke="#f0f1f5"/>
  <rect x="288" y="572" width="28" height="28" rx="8" fill="#f0fdf4"/><text x="302" y="591" font-size="12" text-anchor="middle" fill="#16a34a">zip</text>
  <text x="328" y="583" fill="#111827" font-size="13" font-weight="600">gh-cli.zip</text>
  <text x="328" y="598" fill="#9ca3af" font-size="11">extension · 220 KB · assoc: dev</text>
  <rect x="630" y="572" width="72" height="26" rx="8" fill="#eef2ff"/><text x="666" y="589" fill="#4f46e5" font-size="11" font-weight="600" text-anchor="middle">associate</text>

  <line x1="288" y1="616" x2="700" y2="616" stroke="#f0f1f5"/>
  <rect x="288" y="630" width="28" height="28" rx="8" fill="#fdf4ff"/><text x="302" y="649" font-size="12" text-anchor="middle" fill="#a21caf">zip</text>
  <text x="328" y="641" fill="#111827" font-size="13" font-weight="600">repo-conventions.zip</text>
  <text x="328" y="656" fill="#9ca3af" font-size="11">prompts + skill · 32 KB · assoc: dev</text>
  <rect x="630" y="630" width="72" height="26" rx="8" fill="#eef2ff"/><text x="666" y="647" fill="#4f46e5" font-size="11" font-weight="600" text-anchor="middle">associate</text>

  <rect x="288" y="678" width="412" height="34" rx="10" fill="#ffffff" stroke="#d8dbe6" stroke-dasharray="6 6"/>
  <text x="494" y="700" fill="#9ca3af" font-size="12" text-anchor="middle">+ Upload packages · extensions · prompts · skills</text>

  <!-- RIGHT: Flows -->
  <text x="748" y="224" fill="#111827" font-size="15" font-weight="700">Flows</text>
  <g filter="url(#card)"><rect x="748" y="240" width="500" height="486" rx="16" fill="#ffffff"/></g>

  <!-- flow row 1 -->
  <rect x="772" y="262" width="40" height="40" rx="11" fill="#eef2ff"/>
  <text x="792" y="287" fill="#4f46e5" font-size="16" text-anchor="middle">⌥</text>
  <text x="826" y="280" fill="#111827" font-size="15" font-weight="700">Bug triage and fix</text>
  <text x="826" y="298" fill="#9ca3af" font-size="12">7 steps · 1 checkpoint · last run 12m ago</text>
  <rect x="1064" y="270" width="80" height="30" rx="9" fill="#4f46e5"/><text x="1104" y="289" fill="#ffffff" font-size="12" font-weight="600" text-anchor="middle">Run</text>
  <rect x="1152" y="270" width="72" height="30" rx="9" fill="#ffffff" stroke="#d8dbe6"/><text x="1188" y="289" fill="#374151" font-size="12" font-weight="600" text-anchor="middle">Edit</text>
  <rect x="826" y="306" width="74" height="18" rx="9" fill="#ecfdf5"/><circle cx="838" cy="315" r="3" fill="#10b981"/><text x="848" y="319" fill="#047857" font-size="10" font-weight="600">completed</text>

  <line x1="772" y1="346" x2="1224" y2="346" stroke="#f0f1f5"/>
  <!-- flow row 2 -->
  <rect x="772" y="362" width="40" height="40" rx="11" fill="#fffbeb"/>
  <text x="792" y="387" fill="#b45309" font-size="16" text-anchor="middle">⌥</text>
  <text x="826" y="380" fill="#111827" font-size="15" font-weight="700">Reproduce and report</text>
  <text x="826" y="398" fill="#9ca3af" font-size="12">5 steps · 2 checkpoints · running now</text>
  <rect x="1064" y="370" width="80" height="30" rx="9" fill="#eef2ff"/><text x="1104" y="389" fill="#4f46e5" font-size="12" font-weight="600" text-anchor="middle">View</text>
  <rect x="1152" y="370" width="72" height="30" rx="9" fill="#ffffff" stroke="#d8dbe6"/><text x="1188" y="389" fill="#374151" font-size="12" font-weight="600" text-anchor="middle">Edit</text>
  <rect x="826" y="406" width="94" height="18" rx="9" fill="#fffbeb"/><circle cx="838" cy="415" r="3" fill="#f59e0b"/><text x="848" y="419" fill="#b45309" font-size="10" font-weight="600">awaiting input</text>

  <line x1="772" y1="446" x2="1224" y2="446" stroke="#f0f1f5"/>
  <!-- empty hint -->
  <rect x="772" y="470" width="452" height="236" rx="12" fill="#fafbfe" stroke="#eceef4"/>
  <rect x="956" y="512" width="84" height="84" rx="16" fill="#eef2ff"/>
  <text x="998" y="562" fill="#4f46e5" font-size="34" text-anchor="middle">＋</text>
  <text x="998" y="624" fill="#111827" font-size="14" font-weight="700" text-anchor="middle">Create a flow from a prompt</text>
  <text x="998" y="646" fill="#9ca3af" font-size="12" text-anchor="middle">The common pi agent turns your instruction into</text>
  <text x="998" y="664" fill="#9ca3af" font-size="12" text-anchor="middle">a visual, editable workflow.</text>
</svg>
